<svg width="201" height="200" viewBox="0 0 201 200" fill="none" xmlns="http://www.w3.org/2000/svg">
<path fill-rule="evenodd" clip-rule="evenodd" d="M200.791 98.3352C200.791 98.3352 152.256 64.7206 100.396 64.7206C48.5357 64.7206 0 98.3352 0 98.3352C0 98.3352 48.5357 136.432 100.396 136.432C152.256 136.432 200.791 98.3352 200.791 98.3352ZM100.396 75.9255C113.597 75.9255 124.299 85.9587 124.299 98.3352C124.299 112.362 113.597 123.733 100.396 123.733C87.194 123.733 76.492 112.362 76.492 98.3352C76.492 85.9587 87.194 75.9255 100.396 75.9255ZM113.543 73.1733C123.453 77.733 130.275 87.2872 130.275 98.3352C130.275 110.856 123.453 121.684 113.543 126.852C112.646 127.696 112.109 129.264 117.128 128.781C156.623 122.812 190.035 98.3352 190.035 98.3352C190.035 98.3352 156.623 76.7379 117.128 71.4709C112.109 71.0447 112.646 72.4282 113.543 73.1733ZM70.516 98.3352C70.516 87.2872 77.3382 77.733 87.2486 73.1733C88.145 72.4282 88.6829 71.0447 83.6631 71.4709C44.1682 76.7379 10.7567 98.3352 10.7567 98.3352C10.7567 98.3352 44.1682 122.812 83.6631 128.781C88.6829 129.264 88.145 127.696 87.2486 126.852C77.3382 121.684 70.516 110.856 70.516 98.3352Z" fill="#F5E3B0"/>
<path d="M99.0911 145.02C98.4751 145.02 97.9647 145.448 97.9244 145.999L96.9086 159.884C96.8643 160.488 97.3994 161 98.0753 161L102.594 161C103.27 161 103.805 160.488 103.76 159.884L102.745 145.999C102.704 145.448 102.194 145.02 101.578 145.02H99.0911Z" fill="#F5E3B0"/>
<path d="M130.186 138.617C129.583 138.745 129.173 139.27 129.249 139.817L131.145 153.609C131.228 154.21 131.858 154.599 132.519 154.459L136.938 153.521C137.6 153.381 138.016 152.769 137.847 152.187L133.963 138.816C133.809 138.286 133.221 137.973 132.618 138.101L130.186 138.617Z" fill="#F5E3B0"/>
<path d="M70.6055 138.617C71.2081 138.745 71.6181 139.27 71.5429 139.817L69.6463 153.609C69.5637 154.21 68.9337 154.599 68.2727 154.459L63.8529 153.521C63.1918 153.38 62.775 152.769 62.9441 152.186L66.828 138.816C66.9822 138.286 67.5705 137.973 68.1731 138.101L70.6055 138.617Z" fill="#F5E3B0"/>
<path d="M99.0911 55.9802C98.4751 55.9802 97.9647 55.5518 97.9244 55.0009L96.9086 41.1165C96.8643 40.5121 97.3994 40 98.0753 40L102.594 40C103.27 40 103.805 40.512 103.76 41.1164L102.745 55.0009C102.704 55.5518 102.194 55.9802 101.578 55.9802H99.0911Z" fill="#F5E3B0"/>
<path d="M130.186 62.3828C129.583 62.2549 129.173 61.7299 129.249 61.1826L131.145 47.3907C131.228 46.7903 131.858 46.4005 132.519 46.5409L136.938 47.4792C137.6 47.6195 138.016 48.2315 137.847 48.8135L133.963 62.1836C133.809 62.7141 133.221 63.0272 132.618 62.8992L130.186 62.3828Z" fill="#F5E3B0"/>
<path d="M70.6055 62.3829C71.2081 62.2549 71.6181 61.7299 71.5429 61.1827L69.6463 47.3907C69.5637 46.7903 68.9337 46.4006 68.2727 46.5409L63.8529 47.4792C63.1918 47.6195 62.775 48.2315 62.9441 48.8135L66.828 62.1836C66.9822 62.7141 67.5705 63.0272 68.1731 62.8992L70.6055 62.3829Z" fill="#F5E3B0"/>
</svg>
