<svg width="200" height="200" viewBox="0 0 200 200" fill="none" xmlns="http://www.w3.org/2000/svg">
<path fill-rule="evenodd" clip-rule="evenodd" d="M199.8 98.2812C199.8 98.2812 151.746 65 100.4 65C49.0543 65 1 98.2812 1 98.2812C1 98.2812 49.0543 136 100.4 136C151.746 136 199.8 98.2812 199.8 98.2812ZM100.4 76.0937C113.471 76.0937 124.067 86.0274 124.067 98.2812C124.067 112.169 113.471 123.427 100.4 123.427C87.3293 123.427 76.7333 112.169 76.7333 98.2812C76.7333 86.0274 87.3293 76.0937 100.4 76.0937ZM113.417 73.3689C123.229 77.8834 129.983 87.3428 129.983 98.2812C129.983 110.678 123.229 121.399 113.417 126.515C112.529 127.351 111.997 128.904 116.967 128.425C156.07 122.515 189.15 98.2812 189.15 98.2812C189.15 98.2812 156.07 76.8981 116.967 71.6834C111.997 71.2614 112.529 72.6312 113.417 73.3689ZM70.8167 98.2812C70.8167 87.3428 77.5712 77.8834 87.3833 73.3689C88.2708 72.6312 88.8033 71.2614 83.8333 71.6834C44.7301 76.8981 11.65 98.2812 11.65 98.2812C11.65 98.2812 44.7301 122.515 83.8333 128.425C88.8033 128.904 88.2708 127.351 87.3833 126.515C77.5712 121.399 70.8167 110.678 70.8167 98.2812Z" fill="#F5E3B0"/>
</svg>
